<?xml version="1.0" standalone="no"?><!DOCTYPE svg PUBLIC "-//W3C//DTD SVG 1.1//EN" "http://www.w3.org/Graphics/SVG/1.1/DTD/svg11.dtd"><svg t="1676122466520" class="icon" viewBox="0 0 1024 1024" version="1.1" xmlns="http://www.w3.org/2000/svg" p-id="14677" xmlns:xlink="http://www.w3.org/1999/xlink" width="64" height="64"><path d="M945.92 813.888H233.376L128 121.6 0 96l19.712-96 189.184 40.544 19.2 165.344H1024z m-697.216-512l62.368 416h554.464l43.776-416H248.704z m141.696 155.36l57.6-57.6 134.4 134.4 134.4-134.4 57.6 57.6-192 192zM377.856 864a80 80 0 1 1-80 80 80 80 0 0 1 80-80z m409.6 0a80 80 0 1 1-80 80 80 80 0 0 1 80-80z" fill="#0590DF" p-id="14678"></path></svg>