<?xml version="1.0" standalone="no"?><!DOCTYPE svg PUBLIC "-//W3C//DTD SVG 1.1//EN" "http://www.w3.org/Graphics/SVG/1.1/DTD/svg11.dtd"><svg t="1673336564837" class="icon" viewBox="0 0 1024 1024" version="1.1" xmlns="http://www.w3.org/2000/svg" p-id="5777" xmlns:xlink="http://www.w3.org/1999/xlink" width="200" height="200"><path d="M790.5 648.7h-7.8V488.1c0-120.7-98.7-219.4-219.4-219.4s-219.4 98.7-219.4 219.4v160.6h-13.1c-28.7 0-52.2 23.5-52.2 52.2 0 28.7 23.5 52.2 52.2 52.2h459.7c28.7 0 52.2-23.5 52.2-52.2 0.1-28.7-23.5-52.2-52.2-52.2z" fill="#25B195" p-id="5778"></path><path d="M678.3 271.4m-78.4 0a78.4 78.4 0 1 0 156.8 0 78.4 78.4 0 1 0-156.8 0Z" fill="#595857" p-id="5779"></path><path d="M407.3 810.9c4.9 28.4 55.1 50.7 116.2 50.7s111.3-22.3 116.2-50.7H407.3zM794.6 615.4H787V477.1c0-52.2-11-102.6-31.7-147.5-8 10.5-18 19.3-29.5 25.9 15.8 36.6 24.8 77.9 24.8 121.6v180.8h44.1c19.3 0 34.9 18.2 34.9 40.6s-15.8 40.5-35 40.5H231c-19.3 0-34.9-18.2-34.9-40.6s15.7-40.6 34.9-40.6h51.2V477.1c0-150 105-272.1 234.2-272.1 27.9 0 54.7 5.7 79.6 16.2 7.7-12.6 18.3-23.3 30.8-31.3-34.3-17.9-71.7-27.3-110.3-27.3-72 0-139.9 32.8-191.2 92.4s-79.5 138.4-79.5 222.1v138.3H231c-39.4 0-71.4 37.2-71.4 83s32 83 71.4 83h563.6c39.4 0 71.4-37.2 71.4-83s-32-83-71.4-83z" fill="#595857" p-id="5780"></path></svg>