<?xml version="1.0" standalone="no"?><!DOCTYPE svg PUBLIC "-//W3C//DTD SVG 1.1//EN" "http://www.w3.org/Graphics/SVG/1.1/DTD/svg11.dtd"><svg t="1673336862912" class="icon" viewBox="0 0 1024 1024" version="1.1" xmlns="http://www.w3.org/2000/svg" p-id="11572" xmlns:xlink="http://www.w3.org/1999/xlink" width="200" height="200"><path d="M159.5 364.9c-52 0-94.3-42.3-94.3-94.3s42.3-94.3 94.3-94.3 94.3 42.3 94.3 94.3-42.3 94.3-94.3 94.3z m0-120c-14.1 0-25.7 11.5-25.7 25.7s11.5 25.7 25.7 25.7 25.7-11.5 25.7-25.7-11.6-25.7-25.7-25.7zM159.5 625.3c-52 0-94.3-42.3-94.3-94.3s42.3-94.3 94.3-94.3 94.3 42.3 94.3 94.3-42.3 94.3-94.3 94.3z m0-120c-14.1 0-25.7 11.5-25.7 25.7s11.5 25.7 25.7 25.7 25.7-11.5 25.7-25.7-11.6-25.7-25.7-25.7zM159.5 885.6c-52 0-94.3-42.3-94.3-94.3s42.3-94.3 94.3-94.3 94.3 42.3 94.3 94.3-42.3 94.3-94.3 94.3z m0-120c-14.1 0-25.7 11.5-25.7 25.7s11.5 25.7 25.7 25.7 25.7-11.5 25.7-25.7-11.6-25.7-25.7-25.7z" fill="#515151" p-id="11573" data-spm-anchor-id="a313x.7781069.0.i6" class=""></path><path d="M926 309.5c0 10-8.1 18.2-18.2 18.2H333.9c-10 0-18.2-8.1-18.2-18.2v-78c0-10 8.1-18.2 18.2-18.2h573.9c10 0 18.2 8.1 18.2 18.2v78z" fill="#009A74" p-id="11574"></path><path d="M907.9 362h-574c-28.9 0-52.5-23.6-52.5-52.5v-78c0-28.9 23.5-52.5 52.5-52.5h573.9c28.9 0 52.5 23.6 52.5 52.5v78c0 29-23.5 52.5-52.4 52.5z m-557.8-68.6h541.6v-45.6H350.1v45.6z" fill="#515151" p-id="11575"></path><path d="M926 569.9c0 10-8.1 18.2-18.2 18.2H333.9c-10 0-18.2-8.1-18.2-18.2v-78c0-10 8.1-18.2 18.2-18.2h573.9c10 0 18.2 8.1 18.2 18.2v78z" fill="#009A74" p-id="11576"></path><path d="M907.9 622.4h-574c-28.9 0-52.5-23.6-52.5-52.5v-78c0-28.9 23.5-52.5 52.5-52.5h573.9c28.9 0 52.5 23.6 52.5 52.5v78c0 28.9-23.5 52.5-52.4 52.5z m-557.8-68.6h541.6v-45.6H350.1v45.6z" fill="#515151" p-id="11577"></path><path d="M926 830.3c0 10-8.1 18.2-18.2 18.2H333.9c-10 0-18.2-8.1-18.2-18.2v-78c0-10 8.1-18.2 18.2-18.2h573.9c10 0 18.2 8.1 18.2 18.2v78z" fill="#009A74" p-id="11578"></path><path d="M907.9 882.7h-574c-28.9 0-52.5-23.6-52.5-52.5v-78c0-28.9 23.5-52.5 52.5-52.5h573.9c28.9 0 52.5 23.6 52.5 52.5v78c0 29-23.5 52.5-52.4 52.5z m-557.8-68.6h541.6v-45.6H350.1v45.6z" fill="#515151" p-id="11579"></path></svg>